<mxfile host="65bd71144e">
    <diagram id="iBgY6fL7kksWz8zjReKY" name="Page-1">
        <mxGraphModel dx="1446" dy="926" grid="1" gridSize="10" guides="1" tooltips="1" connect="1" arrows="1" fold="1" page="1" pageScale="1" pageWidth="850" pageHeight="1100" math="0" shadow="0">
            <root>
                <mxCell id="0"/>
                <mxCell id="1" parent="0"/>
                <mxCell id="15" value="Requisitos Funcionais" style="rounded=0;whiteSpace=wrap;html=1;align=left;verticalAlign=top;fontStyle=1;spacingLeft=6;" parent="1" vertex="1">
                    <mxGeometry x="30" y="20" width="440" height="570" as="geometry"/>
                </mxCell>
                <mxCell id="3" value="&lt;b&gt;- Autenticação:&lt;/b&gt;&lt;br&gt;- usuário e senha&lt;br&gt;- matrícula e senha" style="rounded=0;whiteSpace=wrap;html=1;align=left;verticalAlign=top;spacingLeft=5;" parent="1" vertex="1">
                    <mxGeometry x="55" y="70" width="130" height="60" as="geometry"/>
                </mxCell>
                <mxCell id="18" style="edgeStyle=none;html=1;entryX=0.25;entryY=0;entryDx=0;entryDy=0;" parent="1" source="4" target="8" edge="1">
                    <mxGeometry relative="1" as="geometry"/>
                </mxCell>
                <mxCell id="4" value="&lt;b&gt;- Registro de ponto:&lt;/b&gt;&lt;br&gt;- Usuário faz apenas um POST com o tipo de evento, o horário é registrado pelo próprio servidor.&lt;br&gt;- Tipos de evento: Entrada | Início intervalo | Fim intervalo | Saída" style="rounded=0;whiteSpace=wrap;html=1;align=left;verticalAlign=top;spacingLeft=5;" parent="1" vertex="1">
                    <mxGeometry x="55" y="160" width="375" height="90" as="geometry"/>
                </mxCell>
                <mxCell id="11" style="edgeStyle=none;html=1;entryX=0;entryY=0.5;entryDx=0;entryDy=0;" parent="1" source="5" target="8" edge="1">
                    <mxGeometry relative="1" as="geometry"/>
                </mxCell>
                <mxCell id="5" value="&lt;b&gt;- Visualização de registros:&lt;/b&gt;&lt;br&gt;- Data&lt;br&gt;- Hora de cada evento&lt;br&gt;- Total de horas no dia" style="rounded=0;whiteSpace=wrap;html=1;align=left;verticalAlign=top;spacingLeft=5;" parent="1" vertex="1">
                    <mxGeometry x="55" y="285" width="195" height="80" as="geometry"/>
                </mxCell>
                <mxCell id="8" value="&lt;b&gt;Registro&amp;nbsp;&lt;/b&gt;{&lt;br&gt;&lt;span style=&quot;white-space: pre;&quot;&gt;&#9;&lt;/span&gt;id_usuário&lt;br&gt;&lt;span style=&quot;white-space: pre;&quot;&gt;&#9;&lt;/span&gt;data&lt;br&gt;&lt;span style=&quot;white-space: pre;&quot;&gt;&#9;&lt;/span&gt;tipo_evento&lt;br&gt;&lt;span style=&quot;white-space: pre;&quot;&gt;&#9;&lt;/span&gt;horário&lt;br&gt;}" style="rounded=0;whiteSpace=wrap;html=1;align=left;verticalAlign=top;spacingLeft=11;" parent="1" vertex="1">
                    <mxGeometry x="300" y="270" width="140" height="110" as="geometry"/>
                </mxCell>
                <mxCell id="12" value="&lt;b&gt;- Relatórios:&lt;/b&gt;&lt;br&gt;- Visualização de registros do mês anterior (todas datas, registros de ponto e total de horas no mês)&lt;br&gt;- Enviar resultado por e-mail" style="rounded=0;whiteSpace=wrap;html=1;align=left;verticalAlign=top;spacingLeft=5;" parent="1" vertex="1">
                    <mxGeometry x="55" y="400" width="195" height="90" as="geometry"/>
                </mxCell>
                <mxCell id="13" value="&lt;b&gt;- Segurança:&lt;/b&gt;&lt;br&gt;- Privacidade" style="rounded=0;whiteSpace=wrap;html=1;align=left;verticalAlign=top;spacingLeft=5;" parent="1" vertex="1">
                    <mxGeometry x="55" y="510" width="95" height="50" as="geometry"/>
                </mxCell>
                <mxCell id="14" value="&lt;b&gt;- Disponibilidade:&lt;/b&gt;&lt;br&gt;- API no max 5s" style="rounded=0;whiteSpace=wrap;html=1;align=left;verticalAlign=top;spacingLeft=5;" parent="1" vertex="1">
                    <mxGeometry x="170" y="510" width="115" height="50" as="geometry"/>
                </mxCell>
                <mxCell id="19" value="Requisitos Funcionais (fase 2)" style="rounded=0;whiteSpace=wrap;html=1;align=left;verticalAlign=top;fontStyle=1;spacingLeft=6;" parent="1" vertex="1">
                    <mxGeometry x="520" y="20" width="250" height="500" as="geometry"/>
                </mxCell>
                <mxCell id="20" value="&lt;b&gt;- Edição de Registros:&lt;/b&gt;&lt;br&gt;- API POST para solicitar edição&lt;br&gt;- API PUT para aprovar edição" style="rounded=0;whiteSpace=wrap;html=1;align=left;verticalAlign=top;spacingLeft=5;" parent="1" vertex="1">
                    <mxGeometry x="545" y="70" width="195" height="60" as="geometry"/>
                </mxCell>
                <mxCell id="22" value="&lt;b&gt;- Notificações:&lt;/b&gt;&lt;br&gt;&amp;nbsp;" style="rounded=0;whiteSpace=wrap;html=1;align=left;verticalAlign=top;spacingLeft=5;" parent="1" vertex="1">
                    <mxGeometry x="545" y="160" width="195" height="90" as="geometry"/>
                </mxCell>
                <mxCell id="24" value="&lt;b&gt;- Administração:&lt;/b&gt;&lt;br&gt;" style="rounded=0;whiteSpace=wrap;html=1;align=left;verticalAlign=top;spacingLeft=5;" parent="1" vertex="1">
                    <mxGeometry x="545" y="285" width="195" height="80" as="geometry"/>
                </mxCell>
                <mxCell id="26" value="&lt;b&gt;- Relatórios:&lt;/b&gt;&lt;br&gt;" style="rounded=0;whiteSpace=wrap;html=1;align=left;verticalAlign=top;spacingLeft=5;" parent="1" vertex="1">
                    <mxGeometry x="545" y="400" width="195" height="90" as="geometry"/>
                </mxCell>
                <mxCell id="34" value="Requisitos Funcionais" style="rounded=0;whiteSpace=wrap;html=1;align=left;verticalAlign=top;fontStyle=1;spacingLeft=6;" parent="1" vertex="1">
                    <mxGeometry x="30" y="20" width="440" height="570" as="geometry"/>
                </mxCell>
                <mxCell id="35" value="&lt;b&gt;- Autenticação:&lt;/b&gt;&lt;br&gt;- usuário e senha&lt;br&gt;- matrícula e senha" style="rounded=0;whiteSpace=wrap;html=1;align=left;verticalAlign=top;spacingLeft=5;" parent="1" vertex="1">
                    <mxGeometry x="55" y="70" width="130" height="60" as="geometry"/>
                </mxCell>
                <mxCell id="36" style="edgeStyle=none;html=1;entryX=0.25;entryY=0;entryDx=0;entryDy=0;" parent="1" source="37" target="40" edge="1">
                    <mxGeometry relative="1" as="geometry"/>
                </mxCell>
                <mxCell id="37" value="&lt;b&gt;- Registro de ponto:&lt;/b&gt;&lt;br&gt;- Usuário faz apenas um POST com o tipo de evento, o horário é registrado pelo próprio servidor.&lt;br&gt;- Tipos de evento: Entrada | Início intervalo | Fim intervalo | Saída" style="rounded=0;whiteSpace=wrap;html=1;align=left;verticalAlign=top;spacingLeft=5;" parent="1" vertex="1">
                    <mxGeometry x="55" y="160" width="375" height="90" as="geometry"/>
                </mxCell>
                <mxCell id="38" style="edgeStyle=none;html=1;entryX=0;entryY=0.5;entryDx=0;entryDy=0;" parent="1" source="39" target="40" edge="1">
                    <mxGeometry relative="1" as="geometry"/>
                </mxCell>
                <mxCell id="39" value="&lt;b&gt;- Visualização de registros:&lt;/b&gt;&lt;br&gt;- Data&lt;br&gt;- Hora de cada evento&lt;br&gt;- Total de horas no dia" style="rounded=0;whiteSpace=wrap;html=1;align=left;verticalAlign=top;spacingLeft=5;" parent="1" vertex="1">
                    <mxGeometry x="55" y="285" width="195" height="80" as="geometry"/>
                </mxCell>
                <mxCell id="40" value="&lt;b&gt;Registro&amp;nbsp;&lt;/b&gt;{&lt;br&gt;&lt;span style=&quot;white-space: pre;&quot;&gt;&#9;&lt;/span&gt;id_usuário&lt;br&gt;&lt;span style=&quot;white-space: pre;&quot;&gt;&#9;&lt;/span&gt;data&lt;br&gt;&lt;span style=&quot;white-space: pre;&quot;&gt;&#9;&lt;/span&gt;tipo_evento&lt;br&gt;&lt;span style=&quot;white-space: pre;&quot;&gt;&#9;&lt;/span&gt;horário&lt;br&gt;}" style="rounded=0;whiteSpace=wrap;html=1;align=left;verticalAlign=top;spacingLeft=11;" parent="1" vertex="1">
                    <mxGeometry x="300" y="270" width="140" height="110" as="geometry"/>
                </mxCell>
                <mxCell id="41" value="&lt;b&gt;- Relatórios:&lt;/b&gt;&lt;br&gt;- Visualização de registros do mês anterior (todas datas, registros de ponto e total de horas no mês)&lt;br&gt;- Enviar resultado por e-mail" style="rounded=0;whiteSpace=wrap;html=1;align=left;verticalAlign=top;spacingLeft=5;" parent="1" vertex="1">
                    <mxGeometry x="55" y="400" width="195" height="90" as="geometry"/>
                </mxCell>
                <mxCell id="42" value="&lt;b&gt;- Segurança:&lt;/b&gt;&lt;br&gt;- Privacidade" style="rounded=0;whiteSpace=wrap;html=1;align=left;verticalAlign=top;spacingLeft=5;" parent="1" vertex="1">
                    <mxGeometry x="55" y="510" width="95" height="50" as="geometry"/>
                </mxCell>
                <mxCell id="43" value="&lt;b&gt;- Disponibilidade:&lt;/b&gt;&lt;br&gt;- API no max 5s" style="rounded=0;whiteSpace=wrap;html=1;align=left;verticalAlign=top;spacingLeft=5;" parent="1" vertex="1">
                    <mxGeometry x="170" y="510" width="115" height="50" as="geometry"/>
                </mxCell>
                <mxCell id="44" value="Requisitos Funcionais (fase 2)" style="rounded=0;whiteSpace=wrap;html=1;align=left;verticalAlign=top;fontStyle=1;spacingLeft=6;" parent="1" vertex="1">
                    <mxGeometry x="520" y="20" width="250" height="580" as="geometry"/>
                </mxCell>
                <mxCell id="45" value="&lt;b&gt;- Edição de Registros:&lt;/b&gt;&lt;br&gt;- API POST para solicitar edição&lt;br&gt;- API GET para supervisor ver solicitações&lt;br&gt;- API PUT para aprovar edição" style="rounded=0;whiteSpace=wrap;html=1;align=left;verticalAlign=top;spacingLeft=5;" parent="1" vertex="1">
                    <mxGeometry x="545" y="70" width="195" height="90" as="geometry"/>
                </mxCell>
                <mxCell id="46" value="&lt;b&gt;- Notificações:&lt;/b&gt;&lt;br&gt;&amp;nbsp;- AWS EventBridge integrado a AWS Lambda emitindo eventos a cada 20 min para verificar quais funcionários esqueceram de registrar o ponto. Caso encontre registros, chamar API para fazer o envio das notificações." style="rounded=0;whiteSpace=wrap;html=1;align=left;verticalAlign=top;spacingLeft=5;" parent="1" vertex="1">
                    <mxGeometry x="547.5" y="195" width="192.5" height="145" as="geometry"/>
                </mxCell>
                <mxCell id="47" value="&lt;b&gt;- Administração:&lt;br&gt;&lt;/b&gt;Criar outra API para gerenciamento dos usuários" style="rounded=0;whiteSpace=wrap;html=1;align=left;verticalAlign=top;spacingLeft=5;" parent="1" vertex="1">
                    <mxGeometry x="547.5" y="380" width="195" height="80" as="geometry"/>
                </mxCell>
                <mxCell id="48" value="&lt;b&gt;- Relatórios:&lt;br&gt;&lt;/b&gt;- Serviço para gerar relatórios durante a noite" style="rounded=0;whiteSpace=wrap;html=1;align=left;verticalAlign=top;spacingLeft=5;" parent="1" vertex="1">
                    <mxGeometry x="547.5" y="490" width="195" height="90" as="geometry"/>
                </mxCell>
                <mxCell id="49" value="Requisitos não funcionais" style="rounded=0;whiteSpace=wrap;html=1;align=left;verticalAlign=top;fontStyle=1;spacingLeft=6;" parent="1" vertex="1">
                    <mxGeometry x="840" y="100" width="200" height="200" as="geometry"/>
                </mxCell>
                <mxCell id="50" value="- Desempenho&lt;br&gt;- Escalabilidade&lt;br&gt;-&amp;nbsp;Disponibilidade&lt;br&gt;-&amp;nbsp;Segurança&lt;br&gt;-&amp;nbsp;Integridade dos Dados&lt;br&gt;-&amp;nbsp;Manutenibilidade&lt;br&gt;-&amp;nbsp;Resiliência&lt;br&gt;-&amp;nbsp;Conformidade" style="rounded=0;whiteSpace=wrap;html=1;align=left;verticalAlign=top;spacingLeft=5;" parent="1" vertex="1">
                    <mxGeometry x="860" y="140" width="165" height="140" as="geometry"/>
                </mxCell>
                <mxCell id="51" value="Entregaveis" style="rounded=0;whiteSpace=wrap;html=1;align=left;verticalAlign=top;fontStyle=1;spacingLeft=6;" parent="1" vertex="1">
                    <mxGeometry x="840" y="350" width="200" height="200" as="geometry"/>
                </mxCell>
                <mxCell id="52" value="-&amp;nbsp;Desenho da solução MVP&lt;br&gt;-&amp;nbsp;Desenho da solução evolutiva (fase 2)&lt;br&gt;-&amp;nbsp;Demonstração da infra na cloud&lt;br&gt;-&amp;nbsp;Demonstração da esteira de CI/CD&lt;br&gt;-&amp;nbsp;Demonstração do MVP" style="rounded=0;whiteSpace=wrap;html=1;align=left;verticalAlign=top;spacingLeft=5;" parent="1" vertex="1">
                    <mxGeometry x="860" y="390" width="165" height="140" as="geometry"/>
                </mxCell>
            </root>
        </mxGraphModel>
    </diagram>
</mxfile>
